<?xml version="1.0" encoding="UTF-8" standalone="no"?>
<svg
   viewBox="0 0 375 375"
   class="w-12 h-12 transition-all duration-200 cursor-pointer group-hover:scale-110 text-accent-coral dark:text-accent-coral"
   version="1.1"
   id="svg1"
   sodipodi:docname="fusion-2.svg"
   inkscape:version="1.3.2 (091e20e, 2023-11-25)"
   xmlns:inkscape="http://www.inkscape.org/namespaces/inkscape"
   xmlns:sodipodi="http://sodipodi.sourceforge.net/DTD/sodipodi-0.dtd"
   xmlns="http://www.w3.org/2000/svg"
   xmlns:svg="http://www.w3.org/2000/svg">
  <defs
     id="defs1" />
  <sodipodi:namedview
     id="namedview1"
     pagecolor="#ffffff"
     bordercolor="#666666"
     borderopacity="1.0"
     inkscape:showpageshadow="2"
     inkscape:pageopacity="0.0"
     inkscape:pagecheckerboard="0"
     inkscape:deskcolor="#d1d1d1"
     inkscape:zoom="0.62933333"
     inkscape:cx="186.70551"
     inkscape:cy="187.5"
     inkscape:window-width="1632"
     inkscape:window-height="679"
     inkscape:window-x="62"
     inkscape:window-y="455"
     inkscape:window-maximized="0"
     inkscape:current-layer="g1" />
  <g
     fill="currentColor"
     id="g1">
    <path
       d="M35.32 25.422h124.578c7.457 0 13.5 6.043 13.5 13.5v158.894c0 7.457-6.043 13.5-13.5 13.5H35.32c-7.457 0-13.5-6.043-13.5-13.5V38.922c0-7.457 6.043-13.5 13.5-13.5ZM35.32 242.773h124.578a13.503 13.503 0 0 1 13.5 13.5v82.387c0 7.453-6.043 13.5-13.5 13.5H35.32a13.503 13.503 0 0 1-13.5-13.5v-82.387c0-7.453 6.043-13.5 13.5-13.5ZM218.844 25.422h124.574a13.5 13.5 0 0 1 13.5 13.5v82.348c0 7.457-6.043 13.5-13.5 13.5H218.844a13.5 13.5 0 0 1-13.5-13.5V38.922c0-7.457 6.043-13.5 13.5-13.5ZM218.844 163.672h124.574a13.51 13.51 0 0 1 9.547 3.957 13.497 13.497 0 0 1 3.953 9.543v158.926c0 7.457-6.043 13.5-13.5 13.5H218.844a13.5 13.5 0 0 1-13.5-13.5V177.172c0-7.453 6.043-13.5 13.5-13.5Z"
       id="path1"
       style="stroke:none;stroke-opacity:1;fill:#2bca55;fill-opacity:1" />
  </g>
</svg>
